<svg width="4" height="15" viewBox="0 0 4 15" fill="none" xmlns="http://www.w3.org/2000/svg">
<path d="M4 2C4 3.10457 3.10457 4 2 4C0.89543 4 0 3.10457 0 2C0 0.89543 0.89543 0 2 0C3.10457 0 4 0.89543 4 2Z" fill="#898989"/>
<path d="M4 7.5C4 8.60457 3.10457 9.5 2 9.5C0.89543 9.5 0 8.60457 0 7.5C0 6.39543 0.89543 5.5 2 5.5C3.10457 5.5 4 6.39543 4 7.5Z" fill="#898989"/>
<path d="M4 13C4 14.1046 3.10457 15 2 15C0.89543 15 0 14.1046 0 13C0 11.8954 0.89543 11 2 11C3.10457 11 4 11.8954 4 13Z" fill="#898989"/>
</svg>
